<svg width="1578" height="695" viewBox="0 0 1578 695" fill="none" xmlns="http://www.w3.org/2000/svg">
<path fill-rule="evenodd" clip-rule="evenodd" d="M-746.848 495.032C-857.236 605.421 -857.236 784.396 -746.848 894.784L-452.294 1189.34C-341.906 1299.73 -162.931 1299.73 -52.5421 1189.34L242.012 894.784C242.358 894.438 242.703 894.091 243.047 893.744C223.293 868.013 207.983 839.968 197.116 810.65C191.629 817.977 185.555 825.004 178.893 831.665L-115.661 1126.22C-191.19 1201.75 -313.646 1201.75 -389.175 1126.22L-683.729 831.665C-759.258 756.136 -759.258 633.68 -683.729 558.151L-389.175 263.597C-313.646 188.068 -191.19 188.068 -115.661 263.597L178.893 558.151C186.453 565.711 193.257 573.741 199.304 582.148C210.723 553.073 226.564 525.333 246.824 499.961C245.244 498.304 243.64 496.66 242.012 495.032L-52.5421 200.478C-162.93 90.0898 -341.906 90.0898 -452.294 200.478L-746.848 495.032Z" fill="#FAFAFF"/>
<path fill-rule="evenodd" clip-rule="evenodd" d="M305.442 494.462C195.053 604.85 195.053 783.825 305.442 894.214L599.996 1188.77C710.384 1299.16 889.359 1299.16 999.747 1188.77L1294.3 894.214C1294.65 893.868 1294.99 893.521 1295.34 893.174C1275.58 867.443 1260.27 839.398 1249.41 810.079C1243.92 817.407 1237.84 824.433 1231.18 831.095L936.629 1125.65C861.1 1201.18 738.643 1201.18 663.114 1125.65L368.56 831.095C293.031 755.566 293.031 633.11 368.56 557.581L663.114 263.027C738.643 187.498 861.1 187.498 936.629 263.027L1231.18 557.581C1238.74 565.141 1245.55 573.171 1251.59 581.578C1263.01 552.503 1278.85 524.763 1299.11 499.391C1297.53 497.733 1295.93 496.09 1294.3 494.462L999.747 199.908C889.359 89.5196 710.384 89.5196 599.996 199.908L305.442 494.462Z" fill="#FAFAFF"/>
<path fill-rule="evenodd" clip-rule="evenodd" d="M1346.85 494.462C1236.46 604.85 1236.46 783.825 1346.85 894.214L1641.4 1188.77C1751.79 1299.16 1930.76 1299.16 2041.15 1188.77L2335.71 894.214C2336.05 893.868 2336.4 893.521 2336.74 893.174C2316.99 867.443 2301.68 839.398 2290.81 810.079C2285.32 817.407 2279.25 824.433 2272.59 831.095L1978.03 1125.65C1902.51 1201.18 1780.05 1201.18 1704.52 1125.65L1409.97 831.095C1334.44 755.566 1334.44 633.11 1409.97 557.581L1704.52 263.027C1780.05 187.498 1902.51 187.498 1978.03 263.027L2272.59 557.581C2280.15 565.141 2286.95 573.171 2293 581.578C2304.42 552.503 2320.26 524.763 2340.52 499.391C2338.94 497.733 2337.34 496.09 2335.71 494.462L2041.15 199.908C1930.76 89.5196 1751.79 89.5196 1641.4 199.908L1346.85 494.462Z" fill="#FAFAFF"/>
<path fill-rule="evenodd" clip-rule="evenodd" d="M-630.329 810.626C-694.238 746.717 -694.238 643.1 -630.329 579.191L-372.467 321.329C-308.558 257.42 -204.941 257.42 -141.032 321.329L116.83 579.191C180.739 643.1 180.739 746.717 116.83 810.626L-141.032 1068.49C-204.941 1132.4 -308.558 1132.4 -372.467 1068.49L-630.329 810.626ZM-567.21 642.309C-596.26 671.359 -596.26 718.457 -567.21 747.507L-309.348 1005.37C-280.299 1034.42 -233.2 1034.42 -204.15 1005.37L53.7114 747.507C82.7609 718.458 82.7609 671.359 53.7114 642.309L-204.15 384.447C-233.2 355.398 -280.299 355.398 -309.348 384.447L-567.21 642.309Z" fill="#FAFAFF"/>
<path fill-rule="evenodd" clip-rule="evenodd" d="M421.961 810.056C358.052 746.146 358.052 642.529 421.961 578.62L679.823 320.759C743.732 256.849 847.349 256.849 911.258 320.759L1169.12 578.62C1233.03 642.529 1233.03 746.147 1169.12 810.056L911.258 1067.92C847.349 1131.83 743.732 1131.83 679.823 1067.92L421.961 810.056ZM485.08 641.739C456.03 670.789 456.03 717.887 485.079 746.937L742.941 1004.8C771.991 1033.85 819.09 1033.85 848.139 1004.8L1106 746.937C1135.05 717.887 1135.05 670.789 1106 641.739L848.139 383.877C819.09 354.828 771.991 354.828 742.941 383.877L485.08 641.739Z" fill="#FAFAFF"/>
<path fill-rule="evenodd" clip-rule="evenodd" d="M1463.37 810.056C1399.46 746.146 1399.46 642.529 1463.37 578.62L1721.23 320.759C1785.14 256.849 1888.75 256.849 1952.66 320.759L2210.53 578.62C2274.43 642.529 2274.43 746.147 2210.53 810.056L1952.66 1067.92C1888.75 1131.83 1785.14 1131.83 1721.23 1067.92L1463.37 810.056ZM1526.49 641.739C1497.44 670.789 1497.44 717.887 1526.49 746.937L1784.35 1004.8C1813.4 1033.85 1860.5 1033.85 1889.54 1004.8L2147.41 746.937C2176.46 717.887 2176.46 670.789 2147.41 641.739L1889.54 383.877C1860.5 354.828 1813.4 354.828 1784.35 383.877L1526.49 641.739Z" fill="#FAFAFF"/>
</svg>
